<?xml version="1.0" encoding="utf-8"?>
<!-- Generator: Adobe Illustrator 16.0.0, SVG Export Plug-In . SVG Version: 6.00 Build 0)  -->
<!DOCTYPE svg PUBLIC "-//W3C//DTD SVG 1.1//EN" "http://www.w3.org/Graphics/SVG/1.1/DTD/svg11.dtd">
<svg version="1.1" xmlns="http://www.w3.org/2000/svg" xmlns:xlink="http://www.w3.org/1999/xlink" x="0px" y="0px" viewBox="0 0 1437.673 462.572" style="enable-background:new 0 0 1437.673 462.572;background-color:#F6EA00" xml:space="preserve">
  <style type="text/css">
    <![CDATA[
    .st0{clip-path:url(#SVGID_10_);fill:#B62F2C;}
    .st1{fill:#B62F2C;}
    .st2{fill:#EF3F38;}
    .st3{fill:#EF4137;}
    .st4{fill:#EF413D;}
    .st5{fill:none;stroke:#03A9AE;stroke-width:8;stroke-miterlimit:10;}
    .st6{clip-path:url(#SVGID_12_);fill:#B62F2C;}
    .st7{clip-path:url(#SVGID_2_);fill:#B62F2C;}
    .st8{fill:#F15E4F;}
    .st9{fill:#F6EA00;}
    .st10{clip-path:url(#SVGID_14_);fill:#B62F2C;}
    .st11{clip-path:url(#SVGID_4_);fill:#B62F2C;}
    .st12{fill:#97ABB6;}
    .st13{fill:#97D1D4;}
    .st14{fill:#FAF6B7;}
    .st15{fill:#FFFFFF;}
    .st16{clip-path:url(#SVGID_16_);fill:#B62F2C;}
    .st17{fill:none;}
    .st18{clip-path:url(#SVGID_6_);fill:#B62F2C;}
    .st19{fill:#01AC9A;}
    .st20{clip-path:url(#SVGID_8_);fill:#B62F2C;}
    ]]>
  </style>

  <g id="background">
    <!-- <rect id="background_1_" class="st9" width="1437.673" height="462.572"/> -->

    <!-- bunting -->
    <g id="bunting">
      <polygon class="st19" points="1441.882,462.572 1408.044,462.572 1424.964,434.472"/>
      <polygon class="st2" points="1415.959,462.572 1382.12,462.572 1399.04,434.472"/>
      <polygon class="st19" points="1390.036,462.572 1356.196,462.572 1373.117,434.472"/>
      <polygon class="st2" points="1362.803,462.572 1328.964,462.572 1345.884,434.472"/>
      <polygon class="st19" points="1336.632,462.572 1302.794,462.572 1319.714,434.472"/>
      <polygon class="st2" points="1310.709,462.572 1276.87,462.572 1293.79,434.472"/>
      <polygon class="st19" points="1284.786,462.572 1250.946,462.572 1267.867,434.472"/>
      <polygon class="st2" points="1257.553,462.572 1223.714,462.572 1240.634,434.472"/>
      <polygon class="st19" points="1231.132,462.572 1197.294,462.572 1214.214,434.472"/>
      <polygon class="st2" points="1205.209,462.572 1171.37,462.572 1188.29,434.472"/>
      <polygon class="st19" points="1179.286,462.572 1145.446,462.572 1162.367,434.472"/>
      <polygon class="st2" points="1152.053,462.572 1118.214,462.572 1135.134,434.472"/>
      <polygon class="st19" points="1125.882,462.572 1092.044,462.572 1108.964,434.472"/>
      <polygon class="st2" points="1099.959,462.572 1066.12,462.572 1083.04,434.472"/>
      <polygon class="st19" points="1074.036,462.572 1040.196,462.572 1057.117,434.472"/>
      <polygon class="st2" points="1046.803,462.572 1012.964,462.572 1029.884,434.472"/>
      <polygon class="st19" points="1020.382,462.572 986.544,462.572 1003.464,434.472"/>
      <polygon class="st2" points="994.459,462.572 960.62,462.572 977.54,434.472"/>
      <polygon class="st19" points="968.536,462.572 934.696,462.572 951.617,434.472"/>
      <polygon class="st2" points="941.303,462.572 907.464,462.572 924.384,434.472"/>
      <polygon class="st19" points="915.132,462.572 881.294,462.572 898.214,434.472"/>
      <polygon class="st2" points="889.209,462.572 855.37,462.572 872.29,434.472"/>
      <polygon class="st19" points="863.286,462.572 829.446,462.572 846.367,434.472"/>
      <polygon class="st2" points="836.053,462.572 802.214,462.572 819.134,434.472"/>
      <polygon class="st19" points="808.883,462.572 775.045,462.572 791.965,434.472"/>
      <polygon class="st2" points="782.959,462.572 749.121,462.572 766.041,434.472"/>
      <polygon class="st19" points="757.037,462.572 723.197,462.572 740.117,434.472"/>
      <polygon class="st2" points="729.803,462.572 695.964,462.572 712.884,434.472"/>
      <polygon class="st19" points="703.632,462.572 669.794,462.572 686.714,434.472"/>
      <polygon class="st2" points="677.709,462.572 643.871,462.572 660.791,434.472"/>
      <polygon class="st19" points="651.787,462.572 617.947,462.572 634.868,434.472"/>
      <polygon class="st2" points="624.553,462.572 590.714,462.572 607.634,434.472"/>
      <polygon class="st19" points="598.132,462.572 564.294,462.572 581.214,434.472"/>
      <polygon class="st2" points="572.209,462.572 538.371,462.572 555.291,434.472"/>
      <polygon class="st19" points="546.287,462.572 512.447,462.572 529.368,434.472"/>
      <polygon class="st2" points="519.053,462.572 485.214,462.572 502.134,434.472"/>
      <polygon class="st19" points="492.882,462.572 459.044,462.572 475.964,434.472"/>
      <polygon class="st2" points="466.959,462.572 433.121,462.572 450.041,434.472"/>
      <polygon class="st19" points="441.037,462.572 407.197,462.572 424.118,434.472"/>
      <polygon class="st2" points="413.803,462.572 379.964,462.572 396.884,434.472"/>
      <polygon class="st19" points="387.382,462.572 353.544,462.572 370.464,434.472"/>
      <polygon class="st2" points="361.459,462.572 327.621,462.572 344.541,434.472"/>
      <polygon class="st19" points="335.537,462.572 301.697,462.572 318.618,434.472"/>
      <polygon class="st2" points="308.303,462.572 274.464,462.572 291.384,434.472"/>
      <polygon class="st19" points="282.132,462.572 248.294,462.572 265.214,434.472"/>
      <polygon class="st2" points="256.209,462.572 222.371,462.572 239.291,434.472"/>
      <polygon class="st19" points="230.287,462.572 196.447,462.572 213.368,434.472"/>
      <polygon class="st2" points="203.053,462.572 169.214,462.572 186.134,434.472"/>
      <polygon class="st19" points="178.049,462.572 144.211,462.572 161.131,434.472"/>
      <polygon class="st2" points="152.126,462.572 118.287,462.572 135.207,434.472"/>
      <polygon class="st19" points="126.203,462.572 92.363,462.572 109.284,434.472"/>
      <polygon class="st2" points="98.97,462.572 65.131,462.572 82.051,434.472"/>
      <polygon class="st19" points="72.799,462.572 38.961,462.572 55.881,434.472"/>
      <polygon class="st2" points="46.876,462.572 13.037,462.572 29.957,434.472"/>
      <polygon class="st19" points="20.953,462.572 -12.887,462.572 4.034,434.472"/>
    </g>
  </g>
  <!-- / bunting -->

  <!-- launch pad -->
  <g id="launch-pad">
    <path class="st14" d="M483.237,559.427c0,83.665-67.824,151.488-151.488,151.488c-83.665,0-151.488-67.823-151.488-151.488 s67.823-151.487,151.488-151.487C415.413,407.939,483.237,475.762,483.237,559.427"/>
  </g>
  <!-- / launch pad -->

  <g id="rocket-layer">

    <!-- rocket -->
    <g id="rocket">
      <polygon class="st12" points="431.972,407.939 382.097,380.686 382.04,269.293 431.919,296.545"/>
      <polygon class="st13" points="431.972,407.939 382.04,269.293 431.919,296.545"/>
      <polygon class="st12" points="231.042,408.036 280.893,380.735 280.844,269.342 230.992,296.639"/>
      <polygon class="st13" points="231.042,408.036 280.844,269.342 230.992,296.639"/>
      <path class="st8" d="M392.077,326.275c0.031,66.634-26.959,103.208-60.277,103.224c-33.321,0.016-60.345-36.532-60.377-103.161 c-0.029-66.64,60.243-186.284,60.243-186.284S392.044,259.641,392.077,326.275"/>
      <path class="st3" d="M331.8,429.499c-33.321,0.016-60.345-36.532-60.377-103.161c-0.029-66.64,60.243-186.284,60.243-186.284 L331.8,429.499z"/>
      <path class="st15" d="M349.808,289.597c0.004,9.943-8.051,18.011-18.002,18.015c-9.947,0.007-18.01-8.057-18.014-18 c-0.004-9.948,8.053-18.014,18-18.017C341.737,271.591,349.804,279.646,349.808,289.597"/>
      <path class="st5" d="M349.808,289.597c0.004,9.943-8.051,18.011-18.002,18.015c-9.947,0.007-18.01-8.057-18.014-18 c-0.004-9.948,8.053-18.014,18-18.017C341.737,271.591,349.804,279.646,349.808,289.597z"/>
    </g>
    <!-- / rocket -->

    <!-- launch tower -->
    <g id="launch-tower">
      <polyline class="st12" points="156.613,465.511 156.613,130.408 143.849,130.408 143.849,465.511"/>
      <polyline class="st12" points="194.834,465.511 194.834,130.408 182.07,130.408 182.07,465.511"/>
      <rect x="139.018" y="185.938" class="st12" width="253.172" height="12.764"/>
      <rect x="153.468" y="198.193" class="st4" width="30.828" height="30.828"/>
      <polygon class="st1" points="184.295,229.021 153.468,198.193 184.295,198.193"/>

      <g>
        <g>
          <defs>
            <rect id="SVGID_1_" x="153.468" y="198.191" width="30.828" height="30.83"/>
          </defs>
          <clipPath id="SVGID_2_">
            <use xlink:href="#SVGID_1_"  style="overflow:visible;"/>
          </clipPath>
          <polygon class="st7" points="153.468,229.021 153.468,198.193 184.296,198.193		"/>
        </g>
      </g>

      <rect x="153.468" y="229.021" class="st4" width="30.828" height="30.828"/>
      <polygon class="st1" points="184.295,259.85 153.468,229.021 184.295,229.021"/>

      <g>
        <g>
          <defs>
            <rect id="SVGID_3_" x="153.468" y="229.021" width="30.828" height="30.83"/>
          </defs>
          <clipPath id="SVGID_4_">
            <use xlink:href="#SVGID_3_"  style="overflow:visible;"/>
          </clipPath>
          <polygon class="st11" points="153.468,259.85 153.468,229.021 184.296,229.021		"/>
        </g>
      </g>

      <rect x="153.468" y="259.824" class="st4" width="30.828" height="30.828"/>
      <polygon class="st1" points="184.295,290.652 153.468,259.824 184.295,259.824"/>

      <g>
        <g>
          <defs>
            <rect id="SVGID_5_" x="153.468" y="259.821" width="30.828" height="30.83"/>
          </defs>
          <clipPath id="SVGID_6_">
            <use xlink:href="#SVGID_5_"  style="overflow:visible;"/>
          </clipPath>
          <polygon class="st18" points="153.468,290.652 153.468,259.824 184.296,259.824		"/>
        </g>
      </g>

      <rect x="153.468" y="290.651" class="st4" width="30.828" height="30.828"/>
      <polygon class="st1" points="184.295,321.48 153.468,290.652 184.295,290.652"/>

      <g>
        <g>
          <defs>
            <rect id="SVGID_7_" x="153.468" y="290.651" width="30.828" height="30.83"/>
          </defs>
          <clipPath id="SVGID_8_">
            <use xlink:href="#SVGID_7_"  style="overflow:visible;"/>
          </clipPath>
          <polygon class="st20" points="153.468,321.48 153.468,290.652 184.296,290.652		"/>
        </g>
      </g>

      <rect x="153.468" y="334.073" class="st4" width="30.828" height="30.828"/>
      <polygon class="st1" points="184.295,364.902 153.468,334.074 184.295,334.074"/>

      <g>
        <g>
          <defs>
            <rect id="SVGID_9_" x="153.468" y="334.071" width="30.828" height="30.83"/>
          </defs>
          <clipPath id="SVGID_10_">
            <use xlink:href="#SVGID_9_"  style="overflow:visible;"/>
          </clipPath>
          <polygon class="st0" points="153.468,364.902 153.468,334.074 184.296,334.074		"/>
        </g>
      </g>

      <rect x="153.468" y="364.901" class="st4" width="30.828" height="30.828"/>
      <polygon class="st1" points="184.295,395.729 153.468,364.901 184.295,364.901"/>

      <g>
        <g>
          <defs>
            <rect id="SVGID_11_" x="153.468" y="364.901" width="30.828" height="30.83"/>
          </defs>
          <clipPath id="SVGID_12_">
            <use xlink:href="#SVGID_11_"  style="overflow:visible;"/>
          </clipPath>
          <polygon class="st6" points="153.468,395.729 153.468,364.901 184.296,364.901		"/>
        </g>
      </g>

      <rect x="153.468" y="395.704" class="st4" width="30.828" height="30.828"/>
      <polygon class="st1" points="184.295,426.532 153.468,395.704 184.295,395.704"/>

      <g>
        <g>
          <defs>
            <rect id="SVGID_13_" x="153.468" y="395.701" width="30.828" height="30.83"/>
          </defs>
          <clipPath id="SVGID_14_">
            <use xlink:href="#SVGID_13_"  style="overflow:visible;"/>
          </clipPath>
          <polygon class="st10" points="153.468,426.532 153.468,395.704 184.296,395.704		"/>
        </g>
      </g>

      <polyline class="st1" points="184.295,470.317 153.468,439.489 184.295,439.489 184.295,470.317"/>
      <polyline class="st17" points="184.296,470.321 184.296,439.491 153.468,439.491 153.468,470.321"/>
      <rect x="140.224" y="321.31" class="st12" width="191.632" height="12.764"/>
      <rect x="140.406" y="426.726" class="st12" width="246.066" height="12.764"/>
      <rect x="153.468" y="439.493" class="st4" width="30.828" height="30.828"/>
      <polygon class="st1" points="184.295,470.321 153.468,439.493 184.295,439.493"/>

      <g>
        <g>
          <defs>
            <rect id="SVGID_15_" x="153.468" y="439.491" width="30.828" height="30.83"/>
          </defs>
          <clipPath id="SVGID_16_">
            <use xlink:href="#SVGID_15_"  style="overflow:visible;"/>
          </clipPath>
          <polygon class="st16" points="153.468,470.321 153.468,439.493 184.296,439.493		"/>
        </g>
      </g>
    </g>
    <!-- / launch tower -->
  </g>
</svg>
